<svg xmlns="http://www.w3.org/2000/svg" xmlns:xlink="http://www.w3.org/1999/xlink" xml:space="preserve" viewBox="-2.87 0 173.34 242.67"><defs><path id="a" d="M7.99 3.1C7.75-.95.24-8.59 0-10.5-.24-8.6-7.75-.95-7.99 3.1c-.17 2.87 1.7 4.06 3.4 4.06 1.83-.02 3.34-2.8 3.86-3.34.25.72-1.6 6.68-2.17 6.68h5.8C2.34 10.5.5 4.54.74 3.82c.45.5 1.8 3.26 3.87 3.34C6.3 7.16 8.16 5.97 8 3.1"/></defs><g style="fill-rule:nonzero;clip-rule:nonzero;stroke:#000;stroke-miterlimit:4"><path stroke="none" d="M-2.87 8.67A8.67 8.67 0 0 1 5.8 0h156a8.67 8.67 0 0 1 8.67 8.67V234a8.67 8.67 0 0 1-8.67 8.67H5.8A8.67 8.67 0 0 1-2.87 234Z" style="fill:#fff;stroke:none"/></g><text xml:space="preserve" x="8.55" y="28.01" style="font-size:32px;font-style:normal;font-weight:400;line-height:125%;letter-spacing:0;word-spacing:0;fill:#000;fill-opacity:1;stroke:none;font-family:Bitstream Vera Sans"><tspan x="8.55" y="28.01" style="font-style:normal;font-variant:normal;font-weight:400;font-stretch:normal;font-family:Arial;-inkscape-font-specification:Arial">7</tspan></text><use xlink:href="#a" style="fill:#000" transform="matrix(1.5086 0 0 1.37933 16.93 45.066)"/><use xlink:href="#a" style="fill:#000" transform="matrix(2.64868 0 0 2.42172 54.61 44.566)"/><text xml:space="preserve" x="-158.98" y="-215.12" style="font-size:32px;font-style:normal;font-weight:400;line-height:125%;letter-spacing:0;word-spacing:0;fill:#000;fill-opacity:1;stroke:none;font-family:Bitstream Vera Sans" transform="scale(-1)"><tspan x="-158.98" y="-215.12" style="font-style:normal;font-variant:normal;font-weight:400;font-stretch:normal;font-family:Arial;-inkscape-font-specification:Arial">7</tspan></text><use xlink:href="#a" style="fill:#000" transform="matrix(-1.5086 0 0 -1.37933 150.225 198.044)"/><use xlink:href="#a" style="fill:#000" transform="matrix(-2.64868 0 0 -2.42172 54.656 198.571)"/><use xlink:href="#a" style="fill:#000" transform="matrix(2.64868 0 0 2.42172 54.695 119.067)"/><use xlink:href="#a" style="fill:#000" transform="matrix(2.64868 0 0 2.42172 112.498 44.367)"/><use xlink:href="#a" style="fill:#000" transform="matrix(-2.64868 0 0 -2.42172 112.543 198.372)"/><use xlink:href="#a" style="fill:#000" transform="matrix(2.64868 0 0 2.42172 112.582 118.868)"/><use xlink:href="#a" style="fill:#000" transform="matrix(2.64868 0 0 2.42172 83.495 83.938)"/></svg>